<mxfile host="app.diagrams.net" modified="2023-07-04T18:29:29.945Z" agent="Mozilla/5.0 (Macintosh; Intel Mac OS X 10_15_7) AppleWebKit/537.36 (KHTML, like Gecko) Chrome/108.0.0.0 Safari/537.36" etag="WJqGWcMteYqYXqPVYb3H" version="21.3.7" type="github">
  <diagram name="Seite-1" id="F5qaDEFaxniAnFWKEK32">
    <mxGraphModel dx="2074" dy="1078" grid="1" gridSize="10" guides="1" tooltips="1" connect="1" arrows="1" fold="1" page="1" pageScale="1" pageWidth="827" pageHeight="1169" math="0" shadow="0">
      <root>
        <mxCell id="0" />
        <mxCell id="1" parent="0" />
        <mxCell id="6gK7wQA29sNMLUSq19f8-3" value="" style="rounded=1;whiteSpace=wrap;html=1;" parent="1" vertex="1">
          <mxGeometry x="200" y="180" width="470" height="650" as="geometry" />
        </mxCell>
        <mxCell id="6gK7wQA29sNMLUSq19f8-10" style="edgeStyle=orthogonalEdgeStyle;rounded=0;orthogonalLoop=1;jettySize=auto;html=1;exitX=1;exitY=0.3333333333333333;exitDx=0;exitDy=0;exitPerimeter=0;endArrow=none;endFill=0;" parent="1" source="6gK7wQA29sNMLUSq19f8-1" target="6gK7wQA29sNMLUSq19f8-6" edge="1">
          <mxGeometry relative="1" as="geometry" />
        </mxCell>
        <mxCell id="6gK7wQA29sNMLUSq19f8-17" style="edgeStyle=orthogonalEdgeStyle;rounded=0;orthogonalLoop=1;jettySize=auto;html=1;exitX=1;exitY=0.3333333333333333;exitDx=0;exitDy=0;exitPerimeter=0;entryX=0;entryY=0.5;entryDx=0;entryDy=0;endArrow=none;endFill=0;" parent="1" source="6gK7wQA29sNMLUSq19f8-1" target="6gK7wQA29sNMLUSq19f8-12" edge="1">
          <mxGeometry relative="1" as="geometry" />
        </mxCell>
        <mxCell id="6gK7wQA29sNMLUSq19f8-1" value="User" style="shape=umlActor;verticalLabelPosition=bottom;verticalAlign=top;html=1;outlineConnect=0;" parent="1" vertex="1">
          <mxGeometry x="60" y="290" width="30" height="60" as="geometry" />
        </mxCell>
        <mxCell id="6gK7wQA29sNMLUSq19f8-4" value="Health and Activity &lt;br&gt;Monitor Application" style="text;html=1;strokeColor=none;fillColor=none;align=center;verticalAlign=middle;whiteSpace=wrap;rounded=0;" parent="1" vertex="1">
          <mxGeometry x="362.5" y="210" width="145" height="30" as="geometry" />
        </mxCell>
        <mxCell id="6gK7wQA29sNMLUSq19f8-19" style="edgeStyle=orthogonalEdgeStyle;rounded=0;orthogonalLoop=1;jettySize=auto;html=1;exitX=0.5;exitY=1;exitDx=0;exitDy=0;entryX=0.5;entryY=0;entryDx=0;entryDy=0;dashed=1;" parent="1" source="6gK7wQA29sNMLUSq19f8-6" target="6gK7wQA29sNMLUSq19f8-14" edge="1">
          <mxGeometry relative="1" as="geometry" />
        </mxCell>
        <mxCell id="6gK7wQA29sNMLUSq19f8-20" value="&amp;lt;&amp;lt;includes&amp;gt;&amp;gt;" style="edgeLabel;html=1;align=center;verticalAlign=middle;resizable=0;points=[];" parent="6gK7wQA29sNMLUSq19f8-19" vertex="1" connectable="0">
          <mxGeometry x="-0.3" y="3" relative="1" as="geometry">
            <mxPoint x="172" y="1" as="offset" />
          </mxGeometry>
        </mxCell>
        <mxCell id="dW_zEeL7rT1Hbo37ZbEG-4" value="" style="edgeStyle=orthogonalEdgeStyle;rounded=0;orthogonalLoop=1;jettySize=auto;html=1;dashed=1;" edge="1" parent="1" source="6gK7wQA29sNMLUSq19f8-6" target="dW_zEeL7rT1Hbo37ZbEG-3">
          <mxGeometry relative="1" as="geometry" />
        </mxCell>
        <mxCell id="dW_zEeL7rT1Hbo37ZbEG-10" style="edgeStyle=orthogonalEdgeStyle;rounded=0;orthogonalLoop=1;jettySize=auto;html=1;exitX=0;exitY=1;exitDx=0;exitDy=0;dashed=1;" edge="1" parent="1" source="6gK7wQA29sNMLUSq19f8-6" target="6gK7wQA29sNMLUSq19f8-13">
          <mxGeometry relative="1" as="geometry">
            <Array as="points">
              <mxPoint x="330" y="338" />
            </Array>
          </mxGeometry>
        </mxCell>
        <mxCell id="6gK7wQA29sNMLUSq19f8-6" value="Monitor Health" style="ellipse;whiteSpace=wrap;html=1;" parent="1" vertex="1">
          <mxGeometry x="270" y="270" width="120" height="80" as="geometry" />
        </mxCell>
        <mxCell id="dW_zEeL7rT1Hbo37ZbEG-8" value="" style="edgeStyle=orthogonalEdgeStyle;rounded=0;orthogonalLoop=1;jettySize=auto;html=1;dashed=1;" edge="1" parent="1" source="6gK7wQA29sNMLUSq19f8-12" target="dW_zEeL7rT1Hbo37ZbEG-7">
          <mxGeometry relative="1" as="geometry" />
        </mxCell>
        <mxCell id="dW_zEeL7rT1Hbo37ZbEG-9" value="&amp;lt;&amp;lt;includes&amp;gt;&amp;gt;" style="edgeLabel;html=1;align=center;verticalAlign=middle;resizable=0;points=[];" vertex="1" connectable="0" parent="dW_zEeL7rT1Hbo37ZbEG-8">
          <mxGeometry x="0.025" y="-4" relative="1" as="geometry">
            <mxPoint x="-8" y="-29" as="offset" />
          </mxGeometry>
        </mxCell>
        <mxCell id="6gK7wQA29sNMLUSq19f8-12" value="Manage&lt;br&gt;User Profile" style="ellipse;whiteSpace=wrap;html=1;" parent="1" vertex="1">
          <mxGeometry x="270" y="680" width="120" height="80" as="geometry" />
        </mxCell>
        <mxCell id="6gK7wQA29sNMLUSq19f8-13" value="Calculate &lt;br&gt;Calories Burned" style="ellipse;whiteSpace=wrap;html=1;" parent="1" vertex="1">
          <mxGeometry x="270" y="490" width="120" height="80" as="geometry" />
        </mxCell>
        <mxCell id="6gK7wQA29sNMLUSq19f8-14" value="Monitor Activity" style="ellipse;whiteSpace=wrap;html=1;" parent="1" vertex="1">
          <mxGeometry x="500" y="490" width="120" height="80" as="geometry" />
        </mxCell>
        <mxCell id="dW_zEeL7rT1Hbo37ZbEG-3" value="Display Real-Time&lt;br&gt;Heart Rate" style="ellipse;whiteSpace=wrap;html=1;" vertex="1" parent="1">
          <mxGeometry x="500" y="270" width="120" height="80" as="geometry" />
        </mxCell>
        <mxCell id="dW_zEeL7rT1Hbo37ZbEG-6" value="&amp;lt;&amp;lt;includes&amp;gt;&amp;gt;" style="edgeLabel;html=1;align=center;verticalAlign=middle;resizable=0;points=[];" vertex="1" connectable="0" parent="1">
          <mxGeometry x="443" y="308" as="geometry" />
        </mxCell>
        <mxCell id="dW_zEeL7rT1Hbo37ZbEG-7" value="Update/Insert&lt;br&gt;Data" style="ellipse;whiteSpace=wrap;html=1;" vertex="1" parent="1">
          <mxGeometry x="500" y="620" width="120" height="80" as="geometry" />
        </mxCell>
        <mxCell id="dW_zEeL7rT1Hbo37ZbEG-11" value="&amp;lt;&amp;lt;includes&amp;gt;&amp;gt;" style="edgeLabel;html=1;align=center;verticalAlign=middle;resizable=0;points=[];" vertex="1" connectable="0" parent="1">
          <mxGeometry x="311" y="418" as="geometry">
            <mxPoint x="22" as="offset" />
          </mxGeometry>
        </mxCell>
        <mxCell id="dW_zEeL7rT1Hbo37ZbEG-12" value="" style="edgeStyle=orthogonalEdgeStyle;rounded=0;orthogonalLoop=1;jettySize=auto;html=1;exitX=1;exitY=0.5;exitDx=0;exitDy=0;dashed=1;" edge="1" parent="1" target="dW_zEeL7rT1Hbo37ZbEG-14" source="6gK7wQA29sNMLUSq19f8-12">
          <mxGeometry relative="1" as="geometry">
            <mxPoint x="390" y="820" as="sourcePoint" />
          </mxGeometry>
        </mxCell>
        <mxCell id="dW_zEeL7rT1Hbo37ZbEG-13" value="&amp;lt;&amp;lt;includes&amp;gt;&amp;gt;" style="edgeLabel;html=1;align=center;verticalAlign=middle;resizable=0;points=[];" vertex="1" connectable="0" parent="dW_zEeL7rT1Hbo37ZbEG-12">
          <mxGeometry x="0.025" y="-4" relative="1" as="geometry">
            <mxPoint x="-3" y="16" as="offset" />
          </mxGeometry>
        </mxCell>
        <mxCell id="dW_zEeL7rT1Hbo37ZbEG-14" value="Delete Data" style="ellipse;whiteSpace=wrap;html=1;" vertex="1" parent="1">
          <mxGeometry x="500" y="720" width="120" height="80" as="geometry" />
        </mxCell>
      </root>
    </mxGraphModel>
  </diagram>
</mxfile>
